<svg width="63" height="49" viewBox="0 0 63 49" fill="none" xmlns="http://www.w3.org/2000/svg">
<path d="M48.3229 40.7957C44.5845 43.129 40.5702 44.2832 36.305 44.2832C32.0397 44.2832 30.1329 43.6308 28.0756 42.3262C26.0182 41.0215 25.0146 39.3154 25.0146 37.1828C25.0146 34.1721 27.0218 31.7885 31.0361 30.0574C35.0505 28.3262 40.8211 27.3728 48.348 27.147V25.742C48.348 23.9857 48.2476 22.5807 48.0218 21.4767C47.796 20.3728 47.4949 19.5448 47.1186 18.9678C46.667 18.3154 46.0146 17.7886 45.1867 17.4122C44.3587 17.0108 43.4555 16.8352 42.477 16.8352C41.0469 16.8352 39.9179 17.1864 39.115 17.8638C38.3121 18.5412 37.7852 19.595 37.5594 21.0251C37.3085 22.4301 36.9322 23.3835 36.3802 23.8853C35.8283 24.3871 34.8999 24.638 33.5702 24.638C32.2404 24.638 31.6634 24.362 30.9609 23.8352C30.2584 23.3083 29.9071 22.6058 29.9071 21.7527C29.9071 20.8997 30.4591 19.5699 31.5881 18.6416C32.7172 17.7133 34.2727 16.9857 36.2548 16.4337C38.2369 15.8818 40.4196 15.6309 42.7781 15.6309C45.1365 15.6309 48.5236 16.0825 50.8318 16.9857C53.1401 17.8889 54.8462 19.1434 55.9752 20.7491C56.5773 21.5771 57.0039 22.5054 57.2798 23.5341C57.5558 24.5627 57.6562 25.9929 57.6562 27.7993V37.4588C57.6562 39.3154 58.0325 40.6452 58.7852 41.4229C59.5379 42.2007 60.9429 42.7276 63.0003 43.0036V43.9068H48.3229V40.7957ZM38.287 43.3548C33.1186 42.5771 30.5344 40.4946 30.5344 37.1075C30.5344 33.7204 31.7387 33.043 34.1222 31.4624C35.1759 30.7599 37.2333 29.8817 40.2691 28.8029C36.606 29.3047 33.7458 30.0323 31.7136 30.9104C28.2512 32.466 26.52 34.5484 26.52 37.1075C26.52 39.6667 27.4483 40.4695 29.2799 41.6237C31.1114 42.7778 33.4949 43.3548 36.4053 43.3548C39.3157 43.3548 37.7351 43.3548 38.2619 43.3298L38.287 43.3548ZM38.287 16.8352C36.1544 17.2366 34.4483 17.8889 33.1688 18.7921C31.8892 19.6954 31.2369 20.699 31.2369 21.828C31.2369 22.957 31.3623 22.5807 31.6383 22.8316C31.9143 23.0825 32.2655 23.2079 32.7422 23.2079C33.2189 23.2079 33.4949 23.1076 33.6956 22.9319C33.8964 22.7563 34.0971 22.3549 34.2476 21.7778C34.5738 20.5233 35.0003 19.5699 35.5523 18.9427C36.0792 18.3154 37.0075 17.6129 38.3121 16.8352H38.287ZM48.3229 39.3154V28.2007C45.3874 28.5269 42.8533 29.104 40.7458 29.8817C38.6383 30.6595 37.0075 31.6631 35.9035 32.8674C34.7745 34.0717 34.2225 35.4014 34.2225 36.8566C34.2225 38.3118 34.8247 39.5663 36.029 40.5197C37.2333 41.4731 38.7386 41.9749 40.5702 41.9749C42.4017 41.9749 45.4125 41.0717 48.348 39.2903L48.3229 39.3154ZM49.8533 42.4265H56.6024L55.5487 41.8244C55.4483 41.7491 55.3981 41.724 55.373 41.724L54.7709 41.3979C54.3193 41.0717 54.0935 40.6452 54.0935 40.1183V39.4409L54.0433 39.1147V27.6989C54.0433 24.5878 53.5666 22.2545 52.5881 20.724C51.2082 18.6667 49.0755 17.337 46.1652 16.7599C48.0971 17.7635 49.2512 19.3692 49.5773 21.552C49.753 22.9068 49.8533 24.9642 49.8533 27.7993V42.4265Z" fill="white"/>
<path d="M28.8285 18.9174L29.7066 21.4013H29.4557C29.2048 20.9497 28.9539 20.5984 28.703 20.2722C28.4522 19.9712 28.1511 19.6952 27.8751 19.5195C27.5991 19.3439 27.2729 19.1683 26.9468 19.093C26.6206 18.9927 26.2443 18.9676 25.8428 18.9676C25.2658 18.9676 24.7138 19.0679 24.212 19.2687C23.7102 19.4694 23.2586 19.7704 22.9074 20.1468C22.5561 20.5231 22.255 20.9747 22.0543 21.5016C21.8536 22.0285 21.7532 22.5805 21.7532 23.1826C21.7532 24.0859 21.9539 24.9138 22.3303 25.6414C22.7066 26.3941 23.2335 26.9711 23.8858 27.3977C24.5382 27.8242 25.2909 28.0249 26.0937 28.0249C26.8966 28.0249 27.1726 27.9246 27.6493 27.7238C28.126 27.5231 28.5776 27.2221 28.9539 26.8457C29.3303 26.4694 29.6564 25.9676 29.9575 25.3905H30.2586C29.8572 26.4192 29.2299 27.197 28.3769 27.7238C27.5489 28.2507 26.5203 28.5267 25.316 28.5267C24.1117 28.5267 22.7317 28.1755 21.8034 27.4479C21.402 27.1468 21.0758 26.7955 20.7998 26.3941C20.5238 25.9927 20.3231 25.5661 20.1726 25.1145C20.0221 24.6629 19.9468 24.1611 19.9468 23.6593C19.9468 22.731 20.1977 21.9031 20.6995 21.1253C21.2013 20.3475 21.8787 19.7704 22.7568 19.3188C23.6349 18.8923 24.5884 18.6665 25.6421 18.6665C26.6959 18.6665 26.6708 18.7167 27.3984 18.8421C27.9002 18.9425 28.2765 18.9676 28.5023 18.9676C28.7281 18.9676 28.703 18.9676 28.8285 18.9425V18.9174ZM25.0149 28.2256C24.3876 28.0751 23.8106 27.8242 23.3088 27.5231C22.807 27.222 22.3805 26.8708 22.0292 26.4443C21.678 26.0177 21.4271 25.5661 21.2514 25.0393C21.0758 24.5124 21.0005 23.9353 21.0005 23.3081C21.0005 22.6808 21.0507 22.4299 21.126 22.0536C21.2013 21.6773 21.3518 21.326 21.5525 20.9998C21.7532 20.6737 22.0041 20.3475 22.3052 20.0715C22.6063 19.7955 22.9826 19.4945 23.4342 19.2185C22.9074 19.4443 22.4557 19.6952 22.0543 19.9962C21.6529 20.2973 21.3267 20.6235 21.0507 20.9998C20.7747 21.3762 20.574 21.7776 20.4235 22.2292C20.298 22.6808 20.2228 23.1324 20.2228 23.6091C20.2228 24.0858 20.298 24.6127 20.4737 25.0894C20.6242 25.5661 20.85 25.9927 21.1511 26.3941C21.4522 26.7955 21.8034 27.1217 22.2048 27.3977C22.6063 27.6737 23.0579 27.8744 23.4844 27.9998C23.936 28.1253 24.4378 28.2005 24.9898 28.2507L25.0149 28.2256Z" stroke="white" stroke-width="1.25448"/>
<path d="M8.88171 22.8315V36.9068C8.88171 38.8638 8.95698 40.3189 9.10752 41.2974C9.25806 42.2759 9.53404 43.1039 9.96056 43.8566C10.6882 45.1111 11.7921 45.9139 13.2473 46.2903V47.344H0.0250873V46.2903C1.53046 45.8888 2.60931 44.9354 3.28673 43.4551C3.81361 42.3512 4.06451 40.1684 4.06451 36.9068V11.0394C4.06451 8.95698 3.98924 7.45161 3.86379 6.52329C3.71326 5.59498 3.46236 4.79211 3.08602 4.11469C2.43369 2.91039 1.40502 2.08243 0 1.65591V0.602148C0.200717 0.602148 0.376341 0.627239 0.526879 0.627239L2.35842 0.802862C3.08602 0.878131 3.93906 0.903219 4.91756 0.903219C6.44802 0.903219 7.85304 0.802865 9.10752 0.602148L12.0179 0.200714C12.9211 0.0752657 13.8244 0 14.7276 0C16.3584 0 17.8387 0.275982 19.1183 0.827953C20.3978 1.37992 21.5018 2.1577 22.3799 3.18637C23.258 4.21504 23.9606 5.46953 24.4373 6.9749C24.914 8.48027 25.1648 10.1362 25.1648 11.9928C25.1648 15.0788 24.5125 17.4874 23.2329 19.1935C21.9534 20.9247 20.0466 21.9283 17.5376 22.2294C19.0932 23.2329 20.3978 24.6129 21.4767 26.3691C22.5555 28.1254 23.8351 30.9605 25.3154 34.9247C26.9964 39.3655 28.3261 42.4265 29.2795 44.1827C30.258 45.9139 31.3118 47.1433 32.5161 47.8709V48.8243C31.0107 48.7741 29.7312 48.5483 28.6523 48.1469C27.5734 47.7455 26.5448 47.0179 25.491 45.9641C24.1864 44.6093 22.9319 42.8028 21.7778 40.5197C20.6236 38.2365 19.595 35.6272 18.7168 32.6666L17.6129 28.8781C17.086 27.0967 16.6093 25.7921 16.233 24.9892C15.8315 24.1863 15.3548 23.6344 14.8029 23.3333C14.2509 23.0322 13.4982 22.8817 12.5448 22.8817H8.93189L8.88171 22.8315ZM2.91039 45.6129H8.98207L8.1792 44.6093C7.7025 44.0322 7.40143 43.5806 7.27598 43.2293C7.15053 42.8781 7.07526 42.3763 7.07526 41.6989C7.07526 41.0215 7.07526 41.0967 7.07526 40.9713C7.07526 40.8458 7.07526 40.7204 7.07526 40.5698V7.37633C7.07526 7.25089 7.07526 7.10035 7.07526 6.9749C7.07526 6.84945 7.07526 6.59856 7.07526 6.2473C7.07526 5.62006 7.12544 5.11827 7.25089 4.76702C7.37633 4.41577 7.62723 4.01433 8.02867 3.51254L8.1792 3.33691L9.33332 1.85663L8.58064 1.93189C7.32616 2.05734 6.17203 2.13261 5.16845 2.13261C4.16487 2.13261 3.68817 2.10752 2.60931 2.03225L3.71326 3.33691C4.16487 3.8387 4.46594 4.29031 4.61648 4.66666C4.76702 5.043 4.8172 5.56989 4.8172 6.27239C4.8172 6.64874 4.8172 7.02508 4.8172 7.40143V40.5949C4.8172 40.9713 4.8172 41.3476 4.8172 41.724C4.8172 42.4265 4.76702 42.9534 4.61648 43.2795C4.46594 43.6057 4.18996 44.0573 3.71326 44.6344L2.91039 45.6379V45.6129ZM8.88171 21.4767H12.595C14.7527 21.4767 16.2831 21.0752 17.2365 20.2724C18.0896 19.5699 18.7419 18.4659 19.2186 16.9605C19.6953 15.4552 19.9462 13.7491 19.9462 11.8172C19.9462 9.88529 19.6702 8.00358 19.0932 6.39784C18.5161 4.79211 17.7383 3.56272 16.7347 2.68458C15.7312 1.80645 14.577 1.35484 13.2975 1.35484C11.3907 1.35484 10.086 2.33332 9.43368 4.29031C9.05734 5.41934 8.88171 7.17561 8.88171 9.55912V21.4516V21.4767ZM30.1075 47.3942C29.3799 46.7419 28.7778 46.1397 28.3261 45.5878C27.8745 45.0358 27.3225 44.2831 26.7204 43.3046C25.9928 42.025 25.4408 40.9211 25.0143 39.9928C24.6129 39.0645 23.9355 37.3082 22.9821 34.7491C22.1039 32.3154 21.301 30.3333 20.5735 28.8279C19.8459 27.3226 19.1434 26.1183 18.4158 25.1899C17.6882 24.2616 16.9104 23.534 16.0322 22.9319C16.5842 23.8602 17.0358 24.7885 17.4122 25.7168C17.6129 26.2186 17.9641 27.2724 18.4408 28.9032C18.5914 29.3799 18.7419 29.8566 18.8925 30.3082C19.043 30.7598 19.1684 31.2365 19.319 31.7383C20.7993 36.5053 22.405 40.1433 24.1111 42.6021C25.8172 45.0609 27.8243 46.6917 30.1075 47.4193V47.3942ZM16.9856 21.6021C17.914 21.2509 18.767 20.7742 19.5448 20.1218C20.3226 19.4695 20.9498 18.7419 21.4516 17.939C21.9534 17.1362 22.3297 16.1828 22.6057 15.129C22.8817 14.0753 23.0071 12.9964 23.0071 11.8423C23.0071 9.35841 22.4552 7.17562 21.3763 5.34408C20.2975 3.51254 18.8674 2.30824 17.086 1.78135C17.8638 2.48386 18.5412 3.33691 19.0932 4.3154C19.6451 5.2939 20.0466 6.42293 20.3226 7.65232C20.5985 8.9068 20.7491 10.2365 20.7491 11.6667C20.7491 14.1505 20.448 16.1828 19.8459 17.7885C19.2437 19.3692 18.2903 20.6487 16.9856 21.6021Z" fill="white"/>
</svg>
